HIERARCHY
ROOT Hips
{
	OFFSET 0.000000 0.000000 0.000000
	CHANNELS 6 Xposition Yposition Zposition Zrotation Yrotation Xrotation 
	JOINT LeftUpLeg_virtual
	{
		OFFSET 0.000000 0.000000 0.000000
		CHANNELS 3 Zrotation Yrotation Xrotation
		JOINT LeftUpLeg
		{
			OFFSET 10.205400 -3.823500 0.155100
			CHANNELS 3 Zrotation Yrotation Xrotation
			JOINT LeftLeg
			{
				OFFSET 0.708757 -12.982077 0.567790
				CHANNELS 3 Zrotation Yrotation Xrotation
				JOINT LeftFoot
				{
					OFFSET -0.708756 -10.717838 -2.184338
					CHANNELS 3 Zrotation Yrotation Xrotation
					JOINT LeftToeBase
					{
						OFFSET 0.108149 -7.191104 7.560241
						CHANNELS 3 Zrotation Yrotation Xrotation
						End Site
						{
							OFFSET 0.000000 0.000000 0.000000
						}
					}
				}
			}
		}
	}
	JOINT RightUpLeg_virtual
	{
		OFFSET 0.000000 0.000000 0.000000
		CHANNELS 3 Zrotation Yrotation Xrotation
		JOINT RightUpLeg
		{
			OFFSET -10.205400 -3.823500 0.005500
			CHANNELS 3 Zrotation Yrotation Xrotation
			JOINT RightLeg
			{
				OFFSET -0.708756 -12.982134 0.610632
				CHANNELS 3 Zrotation Yrotation Xrotation
				JOINT RightFoot
				{
					OFFSET 0.708754 -10.717769 -1.945823
					CHANNELS 3 Zrotation Yrotation Xrotation
					JOINT RightToeBase
					{
						OFFSET -0.108140 -7.191069 7.372968
						CHANNELS 3 Zrotation Yrotation Xrotation
						End Site
						{
							OFFSET 0.000000 0.000000 0.000000
						}
					}
				}
			}
		}
	}
	JOINT Spine_virtual
	{
		OFFSET 0.000000 0.000000 0.000000
		CHANNELS 3 Zrotation Yrotation Xrotation
		JOINT Spine
		{
			OFFSET 0.000000 6.876099 0.125700
			CHANNELS 3 Zrotation Yrotation Xrotation
			JOINT Spine1
			{
				OFFSET 0.000000 8.022060 0.146608
				CHANNELS 3 Zrotation Yrotation Xrotation
				JOINT Spine2
				{
					OFFSET 0.000000 9.168068 0.167552
					CHANNELS 3 Zrotation Yrotation Xrotation
					JOINT Neck_virtual
					{
						OFFSET 0.000000 0.000000 0.000000
						CHANNELS 3 Zrotation Yrotation Xrotation
						JOINT Neck
						{
							OFFSET 0.000000 10.314075 0.188496
							CHANNELS 3 Zrotation Yrotation Xrotation
							JOINT Head
							{
								OFFSET 0.000000 7.643700 -2.377400
								CHANNELS 3 Zrotation Yrotation Xrotation
								End Site
								{
									OFFSET 0.000000 0.000000 0.000000
								}
							}
						}
					}
					JOINT LeftShoulder_virtual
					{
						OFFSET 0.000000 0.000000 0.000000
						CHANNELS 3 Zrotation Yrotation Xrotation
						JOINT LeftShoulder
						{
							OFFSET 4.392200 8.824978 0.174984
							CHANNELS 3 Zrotation Yrotation Xrotation
							JOINT LeftArm
							{
								OFFSET 8.771219 -2.981674 -0.026999
								CHANNELS 3 Zrotation Yrotation Xrotation
								JOINT LeftForeArm
								{
									OFFSET 8.512804 0.000000 -0.000000
									CHANNELS 3 Zrotation Yrotation Xrotation
									JOINT LeftHand
									{
										OFFSET 18.484802 0.000000 -0.000000
										CHANNELS 3 Zrotation Yrotation Xrotation
										End Site
										{
											OFFSET 0.000000 0.000000 0.000000
										}
									}
								}
							}
						}
					}
					JOINT RightShoulder_virtual
					{
						OFFSET 0.000000 0.000000 0.000000
						CHANNELS 3 Zrotation Yrotation Xrotation
						JOINT RightShoulder
						{
							OFFSET -4.392200 8.824993 0.141379
							CHANNELS 3 Zrotation Yrotation Xrotation
							JOINT RightArm
							{
								OFFSET -8.771282 -2.981682 -0.094208
								CHANNELS 3 Zrotation Yrotation Xrotation
								JOINT RightForeArm
								{
									OFFSET -8.494598 0.000000 0.000000
									CHANNELS 3 Zrotation Yrotation Xrotation
									JOINT RightHand
									{
										OFFSET -18.483803 0.000000 0.000001
										CHANNELS 3 Zrotation Yrotation Xrotation
										End Site
										{
											OFFSET 0.000000 0.000000 0.000000
										}
									}
								}
							}
						}
					}
				}
			}
		}
	}
}
MOTION
Frames: 13
Frame Time: 0.033333
-3.060678 36.198433 -15.132483 -179.945637 0.748095 179.909628 -0.419135 -1.761009 13.882801 2.244299 -5.329019 -14.270901 2.116755 5.686372 12.509398 -0.695666 0.412065 7.576848 0.000000 0.000000 0.000000 5.414942 -1.052513 14.508090 -6.093432 3.850889 -12.082961 -5.870522 4.998139 17.011693 11.759298 2.502905 2.364067 0.000000 0.000000 0.000000 2.155340 1.240852 2.225519 0.799623 -1.749883 -13.708030 -0.170430 -2.565371 9.222316 0.019856 -0.013573 -0.016531 -0.504678 -0.355829 10.246273 -3.754132 5.505943 13.487811 0.000000 0.000000 0.000000 1.416003 0.364322 7.511431 -16.555328 -7.794909 4.312515 -51.997393 18.722245 1.952109 2.377315 -33.531967 2.829722 0.000000 0.000000 0.000000 -3.063520 1.466422 6.866139 26.338359 3.336871 6.161216 47.685816 -19.374226 3.492350 -3.870186 30.271583 -3.607998 0.000000 0.000000 0.000000 
-3.071182 36.180721 -15.099711 -179.977739 0.562289 179.848102 -0.504455 -1.777630 13.723226 2.127834 -4.762150 -14.453075 1.874416 6.135763 12.472426 -0.286314 0.866867 7.865105 0.000000 0.000000 0.000000 5.569775 -1.146482 14.572072 -6.421309 3.701408 -11.974775 -5.746353 4.354756 16.901170 11.629693 2.400215 1.906644 0.000000 0.000000 0.000000 2.210111 1.233154 2.168304 0.656544 -1.749247 -13.678384 -0.229301 -2.553812 9.176544 0.041203 -0.158860 -0.020256 -0.537727 -0.553817 10.147507 -3.771020 5.496920 13.464202 0.000000 0.000000 0.000000 1.407659 0.293839 7.429577 -16.453448 -8.157138 4.256032 -51.405049 16.666753 1.521364 2.306929 -34.465507 2.728430 0.000000 0.000000 0.000000 -3.093152 1.418399 6.815246 26.238908 3.692867 6.272313 47.091344 -18.010831 3.873013 -3.873353 30.681264 -3.617585 0.000000 0.000000 0.000000 
-3.075815 36.156971 -15.060276 179.985785 0.550456 179.795536 -0.522850 -1.814173 13.695385 2.063845 -4.761319 -14.459849 1.986868 6.116505 12.569729 -0.340750 0.986021 7.739886 0.000000 0.000000 0.000000 5.406526 -1.170641 14.395834 -6.308481 3.750997 -11.901475 -5.687461 4.416961 16.997974 11.608829 2.440630 2.015862 0.000000 0.000000 0.000000 2.136674 1.155302 2.069477 0.636930 -1.782631 -13.656047 -0.271546 -2.631058 9.134182 0.013325 -0.034595 -0.040354 -0.558000 -0.449715 10.088724 -3.761542 5.445268 13.523944 0.000000 0.000000 0.000000 1.343999 0.248264 7.319189 -16.365721 -8.671002 4.164391 -50.020098 13.258191 1.157264 2.148086 -35.747762 2.621344 0.000000 0.000000 0.000000 -3.115875 1.406499 6.726301 26.359399 4.323292 6.365253 45.953656 -15.702813 4.461723 -3.746894 31.160737 -3.485117 0.000000 0.000000 0.000000 
-3.077042 36.142372 -15.025167 -179.972288 0.444551 179.831313 -0.441285 -1.920164 13.597423 1.881954 -4.762029 -14.471996 2.289535 6.116509 12.668143 -0.593228 1.022064 7.699740 0.000000 0.000000 0.000000 5.413218 -1.195855 14.339625 -6.357200 3.804274 -11.979378 -5.497741 4.328656 17.240337 11.529749 2.436116 1.814073 0.000000 0.000000 0.000000 2.116443 1.091188 1.850870 0.548261 -1.803506 -13.710701 -0.253535 -2.676424 9.050807 -0.038791 -0.042099 -0.054463 -0.587770 -0.477817 10.057570 -3.690338 5.414656 13.623127 0.000000 0.000000 0.000000 1.308046 0.208746 7.249893 -16.307683 -9.189383 4.077167 -48.325993 9.382791 0.611106 1.934301 -37.297279 2.449175 0.000000 0.000000 0.000000 -3.108329 1.364895 6.702559 26.555373 5.031800 6.494165 44.387275 -12.942679 5.116567 -3.556967 31.720556 -3.305828 0.000000 0.000000 0.000000 
-3.068980 36.132553 -15.008956 179.984255 0.375068 179.764118 -0.473692 -1.924550 13.544047 1.767680 -4.831848 -14.412679 2.559577 6.060641 12.798371 -0.861026 1.129510 7.630206 0.000000 0.000000 0.000000 5.300345 -1.169421 14.180388 -6.169895 3.527844 -11.831206 -5.525227 4.391923 17.379971 11.532281 2.503106 1.838182 0.000000 0.000000 0.000000 2.053657 1.067906 1.669518 0.404906 -1.795232 -13.758170 -0.284327 -2.693405 8.944119 -0.005287 -0.029595 0.001410 -0.576479 -0.525821 9.931668 -3.585643 5.340784 13.802288 0.000000 0.000000 0.000000 1.303039 0.166787 7.108489 -16.342669 -9.654326 4.042236 -46.571669 5.643615 -0.160923 1.602495 -39.262840 2.344265 0.000000 0.000000 0.000000 -3.086805 1.321339 6.551145 26.759708 5.654994 6.640099 42.606440 -10.132943 5.612850 -3.384205 32.596169 -3.144071 0.000000 0.000000 0.000000 
-3.057330 36.130028 -15.015388 179.952959 0.173925 179.899342 -0.536042 -1.995420 13.362140 1.758321 -4.869487 -14.428466 2.800251 6.029185 12.875281 -1.186947 1.263956 7.641848 0.000000 0.000000 0.000000 5.263281 -1.159022 14.052570 -6.056248 3.366992 -11.896209 -5.547834 4.289948 17.631368 11.422697 2.456589 1.706318 0.000000 0.000000 0.000000 1.968122 1.030279 1.328290 0.272631 -1.822360 -13.887550 -0.214919 -2.749028 8.844426 0.008996 -0.044686 -0.038594 -0.535521 -0.530682 9.966524 -3.445331 5.254581 14.019653 0.000000 0.000000 0.000000 1.343153 0.187514 7.081725 -16.427145 -9.966299 3.907964 -44.996859 2.521330 -0.797226 1.331625 -41.510895 2.163259 0.000000 0.000000 0.000000 -3.037916 1.309751 6.513872 26.942904 6.267436 6.702166 40.965521 -7.599678 5.966351 -3.186258 33.874084 -2.976657 0.000000 0.000000 0.000000 
-3.038348 36.130562 -15.022628 179.939571 -0.115808 179.931403 -0.559336 -2.080614 13.187486 1.723582 -4.905130 -14.385458 3.086362 5.996906 13.007208 -1.634534 1.338869 7.611916 0.000000 0.000000 0.000000 5.197610 -1.262002 13.909604 -5.915883 3.501227 -11.860601 -5.530867 4.021375 17.862005 11.276804 2.599999 1.823271 0.000000 0.000000 0.000000 1.883935 1.019567 1.071263 0.137648 -1.832760 -13.974065 -0.112559 -2.756072 8.722456 -0.001415 -0.041628 -0.025528 -0.417207 -0.565558 9.930162 -3.291237 5.136670 14.230093 0.000000 0.000000 0.000000 1.455996 0.126263 7.039301 -16.560034 -10.223290 3.781696 -43.703283 -0.012840 -1.506148 1.060336 -43.920234 1.948451 0.000000 0.000000 0.000000 -2.918863 1.259404 6.413905 27.146151 6.660590 6.900783 39.606293 -5.298921 6.134231 -2.990482 35.311829 -2.826917 0.000000 0.000000 0.000000 
-3.013907 36.136597 -15.024754 -179.968777 -0.280723 -179.945773 -0.516547 -2.198661 12.966907 1.731162 -4.927729 -14.397924 3.487698 6.156666 13.299528 -2.206392 1.333156 7.395766 0.000000 0.000000 0.000000 5.271143 -1.278790 13.682880 -5.840146 3.337279 -11.767781 -5.468231 3.945169 18.018423 11.306036 2.559092 1.876283 0.000000 0.000000 0.000000 1.858410 0.921257 0.762103 0.028527 -1.719213 -14.105369 0.015135 -2.740710 8.651703 0.013940 -0.029723 0.018463 -0.353451 -0.482893 9.824399 -3.109388 4.976210 14.451968 0.000000 0.000000 0.000000 1.493987 0.156468 6.945181 -16.717757 -10.433194 3.641138 -42.907088 -1.892394 -2.023504 0.774496 -46.323682 1.736577 0.000000 0.000000 0.000000 -2.867299 1.259038 6.262904 27.281244 7.036162 6.919831 38.687954 -3.489739 6.479234 -2.863484 36.803272 -2.750963 0.000000 0.000000 0.000000 
-2.988016 36.140594 -15.021187 179.908303 -0.402666 -179.972247 -0.709850 -2.349773 12.863098 1.716927 -4.899636 -14.322119 3.796722 6.071663 13.434935 -2.565647 1.555959 7.359116 0.000000 0.000000 0.000000 5.102924 -1.494247 13.496397 -5.792084 3.479830 -11.634612 -5.378658 3.796598 18.107286 11.274423 2.564472 2.047488 0.000000 0.000000 0.000000 1.734565 0.780766 0.579859 -0.190287 -1.565012 -14.077172 0.212184 -2.686694 8.490219 -0.030227 -0.015339 0.024587 -0.205620 -0.250511 9.804151 -2.889555 4.929695 14.609215 0.000000 0.000000 0.000000 1.581815 0.152860 6.915549 -16.942125 -10.554150 3.618772 -42.593374 -3.064093 -2.240406 0.626127 -48.516845 1.424629 0.000000 0.000000 0.000000 -2.762500 1.226057 6.255823 27.427719 7.352376 7.053101 38.209639 -2.149433 6.873284 -2.823627 38.129521 -2.780410 0.000000 0.000000 0.000000 
-2.959254 36.141689 -15.024975 179.945500 -0.511012 -179.948833 -0.693280 -2.621868 12.781076 1.539152 -4.678489 -14.231931 4.288926 6.151029 13.664758 -3.163374 1.538410 7.273884 0.000000 0.000000 0.000000 5.054369 -1.779705 13.310269 -5.697559 3.588832 -11.543500 -5.388993 3.852943 18.110477 11.233052 2.605154 2.158637 0.000000 0.000000 0.000000 1.758892 0.663654 0.351295 -0.300035 -1.336938 -14.021134 0.160606 -2.773295 8.404208 -0.003717 0.032787 0.015595 -0.149660 -0.423129 9.771680 -2.628873 4.554162 14.693279 0.000000 0.000000 0.000000 1.663873 0.224976 6.919870 -17.136313 -10.719464 3.486727 -42.737047 -3.735264 -2.241382 0.400123 -50.336592 1.277980 0.000000 0.000000 0.000000 -2.675525 1.309923 6.193477 27.480148 7.456138 7.184315 38.064129 -1.316609 7.272954 -2.963816 39.255375 -2.984270 0.000000 0.000000 0.000000 
-2.936344 36.138714 -15.058849 179.934804 -0.427489 -179.816464 -0.691476 -2.889542 12.709266 1.353935 -4.409297 -14.198234 4.775087 6.246204 13.832646 -3.672432 1.589760 7.153812 0.000000 0.000000 0.000000 5.083201 -1.961510 13.132821 -5.762333 3.697965 -11.591283 -5.305354 3.848412 18.169860 11.214829 2.625988 2.156396 0.000000 0.000000 0.000000 1.790207 0.466356 0.001219 -0.421612 -1.184871 -13.952035 0.210571 -2.550975 8.402061 0.017435 -0.015359 0.004315 -0.103883 -0.341923 9.746768 -2.375797 4.307310 14.694657 0.000000 0.000000 0.000000 1.684874 0.288565 6.903035 -17.268916 -10.882628 3.462464 -43.220699 -3.813485 -2.052933 0.314945 -51.820936 1.126952 0.000000 0.000000 0.000000 -2.616451 1.425937 6.164218 27.422040 7.384707 7.085534 38.273368 -1.098761 7.731881 -2.941589 40.129315 -3.025170 0.000000 0.000000 0.000000 
-2.922178 36.120193 -15.121376 -179.984091 -0.261508 -179.779745 -0.583599 -3.201074 12.761958 1.042576 -4.146685 -14.004348 5.281015 6.373296 13.947634 -4.145310 1.649713 6.889912 0.000000 0.000000 0.000000 5.081971 -2.147858 13.096267 -5.671408 4.034390 -11.670882 -5.392727 3.959018 18.281652 11.170522 2.647309 2.191635 0.000000 0.000000 0.000000 1.891787 0.355752 -0.268586 -0.496698 -0.991082 -13.754458 0.235942 -2.487811 8.350086 0.023877 -0.011221 0.016315 -0.131608 -0.226737 9.773251 -2.140260 4.057474 14.564960 0.000000 0.000000 0.000000 1.603690 0.354043 6.963511 -17.419726 -11.025353 3.540700 -43.866279 -3.343980 -1.590395 0.220532 -52.659751 1.155931 0.000000 0.000000 0.000000 -2.650864 1.496947 6.199258 27.326745 7.288766 7.035475 38.568910 -1.360074 8.340490 -2.962518 40.723142 -3.055183 0.000000 0.000000 0.000000 
-2.918602 36.091312 -15.213722 179.930392 -0.133841 -179.797517 -0.716459 -3.498837 12.823739 0.745737 -3.726617 -13.900211 5.872735 6.307728 14.579006 -4.553126 1.652199 6.262224 0.000000 0.000000 0.000000 4.999311 -2.342354 13.141680 -5.815093 4.457809 -11.807817 -5.344174 3.765892 18.526198 11.248827 2.504856 2.153987 0.000000 0.000000 0.000000 1.890564 0.329345 -0.475955 -0.600729 -0.857369 -13.476989 0.189323 -2.472187 8.387303 -0.002901 -0.066762 0.037269 -0.125950 -0.240453 9.746321 -1.929488 3.782377 14.343660 0.000000 0.000000 0.000000 1.608977 0.433680 6.934613 -17.478306 -11.116560 3.551962 -44.636410 -2.231220 -0.906658 0.086454 -52.806576 1.354904 0.000000 0.000000 0.000000 -2.627709 1.484166 6.261642 27.200103 7.278957 7.091258 38.863148 -2.070860 9.462763 -3.129075 40.967741 -3.207627 0.000000 0.000000 0.000000 
